<svg width="662" height="613" viewBox="0 0 662 613" fill="none" xmlns="http://www.w3.org/2000/svg">
<path d="M94.1837 414.532C31.9823 508.827 37.7751 588.038 159.457 613H664.931V0H47.1093C-128.228 169.823 258.575 165.322 94.1837 414.532Z" fill="black"/>
<ellipse cx="250.22" cy="198.5" rx="3.37948" ry="3.5" fill="#F5F6F8" fill-opacity="0.6"/>
<ellipse cx="250.22" cy="215.5" rx="3.37948" ry="3.5" fill="#F5F6F8" fill-opacity="0.6"/>
<ellipse cx="250.22" cy="232.5" rx="3.37948" ry="3.5" fill="#F5F6F8" fill-opacity="0.6"/>
<ellipse cx="250.22" cy="249.5" rx="3.37948" ry="3.5" fill="#F5F6F8" fill-opacity="0.6"/>
<ellipse cx="250.22" cy="266.5" rx="3.37948" ry="3.5" fill="#F5F6F8" fill-opacity="0.6"/>
<ellipse cx="250.22" cy="283.5" rx="3.37948" ry="3.5" fill="#F5F6F8" fill-opacity="0.6"/>
<ellipse cx="266.635" cy="198.5" rx="3.37948" ry="3.5" fill="#F5F6F8" fill-opacity="0.6"/>
<ellipse cx="266.635" cy="215.5" rx="3.37948" ry="3.5" fill="#F5F6F8" fill-opacity="0.6"/>
<ellipse cx="266.635" cy="232.5" rx="3.37948" ry="3.5" fill="#F5F6F8" fill-opacity="0.6"/>
<ellipse cx="266.635" cy="249.5" rx="3.37948" ry="3.5" fill="#F5F6F8" fill-opacity="0.6"/>
<ellipse cx="266.635" cy="266.5" rx="3.37948" ry="3.5" fill="#F5F6F8" fill-opacity="0.6"/>
<ellipse cx="266.635" cy="283.5" rx="3.37948" ry="3.5" fill="#F5F6F8" fill-opacity="0.6"/>
<ellipse cx="283.049" cy="198.5" rx="3.37948" ry="3.5" fill="#F5F6F8" fill-opacity="0.6"/>
<ellipse cx="283.049" cy="215.5" rx="3.37948" ry="3.5" fill="#F5F6F8" fill-opacity="0.6"/>
<ellipse cx="283.049" cy="232.5" rx="3.37948" ry="3.5" fill="#F5F6F8" fill-opacity="0.6"/>
<ellipse cx="283.049" cy="249.5" rx="3.37948" ry="3.5" fill="#F5F6F8" fill-opacity="0.6"/>
<ellipse cx="283.049" cy="266.5" rx="3.37948" ry="3.5" fill="#F5F6F8" fill-opacity="0.6"/>
<ellipse cx="283.049" cy="283.5" rx="3.37948" ry="3.5" fill="#F5F6F8" fill-opacity="0.6"/>
<ellipse cx="299.464" cy="198.5" rx="3.37948" ry="3.5" fill="#F5F6F8" fill-opacity="0.6"/>
<ellipse cx="299.464" cy="215.5" rx="3.37948" ry="3.5" fill="#F5F6F8" fill-opacity="0.6"/>
<ellipse cx="299.464" cy="232.5" rx="3.37948" ry="3.5" fill="#F5F6F8" fill-opacity="0.6"/>
<ellipse cx="299.464" cy="249.5" rx="3.37948" ry="3.5" fill="#F5F6F8" fill-opacity="0.6"/>
<ellipse cx="299.464" cy="266.5" rx="3.37948" ry="3.5" fill="#F5F6F8" fill-opacity="0.6"/>
<ellipse cx="299.464" cy="283.5" rx="3.37948" ry="3.5" fill="#F5F6F8" fill-opacity="0.6"/>
<ellipse cx="315.879" cy="198.5" rx="3.37948" ry="3.5" fill="#F5F6F8" fill-opacity="0.6"/>
<ellipse cx="315.879" cy="215.5" rx="3.37948" ry="3.5" fill="#F5F6F8" fill-opacity="0.6"/>
<ellipse cx="315.879" cy="232.5" rx="3.37948" ry="3.5" fill="#F5F6F8" fill-opacity="0.6"/>
<ellipse cx="315.879" cy="249.5" rx="3.37948" ry="3.5" fill="#F5F6F8" fill-opacity="0.6"/>
<ellipse cx="315.879" cy="266.5" rx="3.37948" ry="3.5" fill="#F5F6F8" fill-opacity="0.6"/>
<ellipse cx="315.879" cy="283.5" rx="3.37948" ry="3.5" fill="#F5F6F8" fill-opacity="0.6"/>
<ellipse cx="332.293" cy="198.5" rx="3.37948" ry="3.5" fill="#F5F6F8" fill-opacity="0.6"/>
<ellipse cx="332.293" cy="215.5" rx="3.37948" ry="3.5" fill="#F5F6F8" fill-opacity="0.6"/>
<ellipse cx="332.293" cy="232.5" rx="3.37948" ry="3.5" fill="#F5F6F8" fill-opacity="0.6"/>
<ellipse cx="332.293" cy="249.5" rx="3.37948" ry="3.5" fill="#F5F6F8" fill-opacity="0.6"/>
<ellipse cx="332.293" cy="266.5" rx="3.37948" ry="3.5" fill="#F5F6F8" fill-opacity="0.6"/>
<ellipse cx="332.293" cy="283.5" rx="3.37948" ry="3.5" fill="#F5F6F8" fill-opacity="0.6"/>
<ellipse cx="348.708" cy="198.5" rx="3.37948" ry="3.5" fill="#F5F6F8" fill-opacity="0.6"/>
<ellipse cx="348.708" cy="215.5" rx="3.37948" ry="3.5" fill="#F5F6F8" fill-opacity="0.6"/>
<ellipse cx="348.708" cy="232.5" rx="3.37948" ry="3.5" fill="#F5F6F8" fill-opacity="0.6"/>
<ellipse cx="348.708" cy="249.5" rx="3.37948" ry="3.5" fill="#F5F6F8" fill-opacity="0.6"/>
<ellipse cx="348.708" cy="266.5" rx="3.37948" ry="3.5" fill="#F5F6F8" fill-opacity="0.6"/>
<ellipse cx="348.708" cy="283.5" rx="3.37948" ry="3.5" fill="#F5F6F8" fill-opacity="0.6"/>
<ellipse cx="554.374" cy="524.5" rx="3.37948" ry="3.5" fill="#F5F6F8" fill-opacity="0.6"/>
<ellipse cx="554.374" cy="541.5" rx="3.37948" ry="3.5" fill="#F5F6F8" fill-opacity="0.6"/>
<ellipse cx="554.374" cy="558.5" rx="3.37948" ry="3.5" fill="#F5F6F8" fill-opacity="0.6"/>
<ellipse cx="554.374" cy="575.5" rx="3.37948" ry="3.5" fill="#F5F6F8" fill-opacity="0.6"/>
<ellipse cx="554.374" cy="592.5" rx="3.37948" ry="3.5" fill="#F5F6F8" fill-opacity="0.6"/>
<ellipse cx="554.374" cy="609.5" rx="3.37948" ry="3.5" fill="#F5F6F8" fill-opacity="0.6"/>
<ellipse cx="570.788" cy="524.5" rx="3.37948" ry="3.5" fill="#F5F6F8" fill-opacity="0.6"/>
<ellipse cx="570.788" cy="541.5" rx="3.37948" ry="3.5" fill="#F5F6F8" fill-opacity="0.6"/>
<ellipse cx="570.788" cy="558.5" rx="3.37948" ry="3.5" fill="#F5F6F8" fill-opacity="0.6"/>
<ellipse cx="570.788" cy="575.5" rx="3.37948" ry="3.5" fill="#F5F6F8" fill-opacity="0.6"/>
<ellipse cx="570.788" cy="592.5" rx="3.37948" ry="3.5" fill="#F5F6F8" fill-opacity="0.6"/>
<ellipse cx="570.788" cy="609.5" rx="3.37948" ry="3.5" fill="#F5F6F8" fill-opacity="0.6"/>
<ellipse cx="587.203" cy="524.5" rx="3.37948" ry="3.5" fill="#F5F6F8" fill-opacity="0.6"/>
<ellipse cx="587.203" cy="541.5" rx="3.37948" ry="3.5" fill="#F5F6F8" fill-opacity="0.6"/>
<ellipse cx="587.203" cy="558.5" rx="3.37948" ry="3.5" fill="#F5F6F8" fill-opacity="0.6"/>
<ellipse cx="587.203" cy="575.5" rx="3.37948" ry="3.5" fill="#F5F6F8" fill-opacity="0.6"/>
<ellipse cx="587.203" cy="592.5" rx="3.37948" ry="3.5" fill="#F5F6F8" fill-opacity="0.6"/>
<ellipse cx="587.203" cy="609.5" rx="3.37948" ry="3.5" fill="#F5F6F8" fill-opacity="0.6"/>
<ellipse cx="603.618" cy="524.5" rx="3.37948" ry="3.5" fill="#F5F6F8" fill-opacity="0.6"/>
<ellipse cx="603.618" cy="541.5" rx="3.37948" ry="3.5" fill="#F5F6F8" fill-opacity="0.6"/>
<ellipse cx="603.618" cy="558.5" rx="3.37948" ry="3.5" fill="#F5F6F8" fill-opacity="0.6"/>
<ellipse cx="603.618" cy="575.5" rx="3.37948" ry="3.5" fill="#F5F6F8" fill-opacity="0.6"/>
<ellipse cx="603.618" cy="592.5" rx="3.37948" ry="3.5" fill="#F5F6F8" fill-opacity="0.6"/>
<ellipse cx="603.618" cy="609.5" rx="3.37948" ry="3.5" fill="#F5F6F8" fill-opacity="0.6"/>
<ellipse cx="620.032" cy="524.5" rx="3.37948" ry="3.5" fill="#F5F6F8" fill-opacity="0.6"/>
<ellipse cx="620.032" cy="541.5" rx="3.37948" ry="3.5" fill="#F5F6F8" fill-opacity="0.6"/>
<ellipse cx="620.032" cy="558.5" rx="3.37948" ry="3.5" fill="#F5F6F8" fill-opacity="0.6"/>
<ellipse cx="620.032" cy="575.5" rx="3.37948" ry="3.5" fill="#F5F6F8" fill-opacity="0.6"/>
<ellipse cx="620.032" cy="592.5" rx="3.37948" ry="3.5" fill="#F5F6F8" fill-opacity="0.6"/>
<ellipse cx="620.032" cy="609.5" rx="3.37948" ry="3.5" fill="#F5F6F8" fill-opacity="0.6"/>
<ellipse cx="636.447" cy="524.5" rx="3.37948" ry="3.5" fill="#F5F6F8" fill-opacity="0.6"/>
<ellipse cx="636.447" cy="541.5" rx="3.37948" ry="3.5" fill="#F5F6F8" fill-opacity="0.6"/>
<ellipse cx="636.447" cy="558.5" rx="3.37948" ry="3.5" fill="#F5F6F8" fill-opacity="0.6"/>
<ellipse cx="636.447" cy="575.5" rx="3.37948" ry="3.5" fill="#F5F6F8" fill-opacity="0.6"/>
<ellipse cx="636.447" cy="592.5" rx="3.37948" ry="3.5" fill="#F5F6F8" fill-opacity="0.6"/>
<ellipse cx="636.447" cy="609.5" rx="3.37948" ry="3.5" fill="#F5F6F8" fill-opacity="0.6"/>
<ellipse cx="652.862" cy="524.5" rx="3.37948" ry="3.5" fill="#F5F6F8" fill-opacity="0.6"/>
<ellipse cx="652.862" cy="541.5" rx="3.37948" ry="3.5" fill="#F5F6F8" fill-opacity="0.6"/>
<ellipse cx="652.862" cy="558.5" rx="3.37948" ry="3.5" fill="#F5F6F8" fill-opacity="0.6"/>
<ellipse cx="652.862" cy="575.5" rx="3.37948" ry="3.5" fill="#F5F6F8" fill-opacity="0.6"/>
<ellipse cx="652.862" cy="592.5" rx="3.37948" ry="3.5" fill="#F5F6F8" fill-opacity="0.6"/>
<ellipse cx="652.862" cy="609.5" rx="3.37948" ry="3.5" fill="#F5F6F8" fill-opacity="0.6"/>
<path d="M1000.04 287C1000.04 418.584 897.148 524.5 771.143 524.5C645.139 524.5 542.252 418.584 542.252 287C542.252 155.416 645.139 49.5 771.143 49.5C897.148 49.5 1000.04 155.416 1000.04 287Z" stroke="#F5F6F8" stroke-opacity="0.3" stroke-width="25"/>
</svg>
